<?xml version="1.0" standalone="no"?>
<!DOCTYPE svg PUBLIC "-//W3C//DTD SVG 20010904//EN"
 "http://www.w3.org/TR/2001/REC-SVG-20010904/DTD/svg10.dtd">
<svg version="1.0" xmlns="http://www.w3.org/2000/svg"
 width="200.000000pt" height="200.000000pt" viewBox="0 0 200.000000 200.000000"
 preserveAspectRatio="xMidYMid meet">
<metadata>
Created by potrace 1.14, written by Peter Selinger 2001-2017
</metadata>
<g transform="translate(0.000000,200.000000) scale(0.100000,-0.100000)"
fill="#000000" stroke="none">
<path d="M930 1990 c0 -5 -3 -9 -7 -8 -18 5 -136 -14 -173 -27 -22 -8 -40 -12
-40 -10 0 7 -157 -61 -203 -88 -71 -42 -177 -123 -170 -130 3 -4 1 -7 -5 -7
-6 0 -28 -19 -49 -41 -21 -23 -44 -48 -51 -55 -7 -8 -11 -14 -8 -14 3 0 -8
-15 -25 -32 -16 -18 -29 -38 -29 -45 0 -7 -5 -13 -11 -13 -5 0 -7 -4 -4 -10 3
-5 2 -10 -3 -10 -14 0 -95 -183 -106 -240 -3 -14 -10 -44 -16 -68 -5 -23 -11
-60 -12 -82 -1 -22 -5 -40 -9 -40 -8 0 -5 -89 4 -155 15 -114 20 -141 25 -150
4 -5 8 -20 10 -33 1 -12 8 -35 14 -50 6 -15 12 -32 13 -38 10 -44 123 -240
149 -256 6 -4 8 -8 4 -8 -4 0 10 -17 32 -39 21 -21 36 -41 33 -45 -4 -3 -2 -6
3 -6 5 0 27 -16 49 -35 91 -80 250 -173 335 -195 25 -6 52 -14 60 -17 80 -32
244 -46 382 -33 27 3 48 8 48 11 0 4 10 7 23 7 25 1 55 7 77 15 8 3 40 13 70
23 30 9 58 22 62 28 4 6 8 8 8 3 0 -11 103 46 173 97 61 43 197 172 197 186 0
4 11 20 24 35 14 16 37 52 52 79 15 28 31 54 36 57 5 3 10 16 11 27 1 12 4 22
7 22 6 0 45 112 56 160 34 151 36 254 10 435 -14 98 -73 235 -155 360 -71 109
-273 295 -320 295 -6 0 -11 5 -11 11 0 5 -4 7 -10 4 -5 -3 -10 -2 -10 2 0 9
-36 27 -115 57 -57 22 -185 56 -185 49 0 -3 -6 -2 -12 3 -7 5 -32 9 -55 9 -23
-1 -39 3 -37 7 3 4 -27 8 -65 8 -41 0 -71 -4 -71 -10z"/>
</g>
</svg>
